<?xml version="1.0" encoding="utf-8"?>
<!-- Generator: Adobe Illustrator 25.1.0, SVG Export Plug-In . SVG Version: 6.00 Build 0)  -->
<svg version="1.1" id="Layer_1" xmlns="http://www.w3.org/2000/svg" xmlns:xlink="http://www.w3.org/1999/xlink" x="0px" y="0px"
	 viewBox="0 0 54.8 54.8" style="enable-background:new 0 0 54.8 54.8;" xml:space="preserve">
<path d="M34.7,37l2.2-2.2l-7.9-8V16.7h-3V28L34.7,37z M27.4,47.4c-2.7,0-5.3-0.5-7.8-1.6s-4.6-2.5-6.4-4.3S10,37.6,9,35.1
	c-1.1-2.4-1.6-5-1.6-7.8s0.5-5.3,1.6-7.8s2.5-4.6,4.3-6.4S17.2,10,19.6,9s5-1.6,7.8-1.6s5.3,0.5,7.8,1.6s4.6,2.5,6.4,4.3
	s3.2,3.9,4.3,6.4s1.6,5,1.6,7.8s-0.5,5.3-1.6,7.8c-1,2.4-2.5,4.6-4.3,6.4s-3.9,3.2-6.4,4.3S30.1,47.4,27.4,47.4z M27.4,44.4
	c4.7,0,8.7-1.7,12-5s5-7.3,5-12c0-4.7-1.7-8.7-5-12s-7.3-5-12-5s-8.7,1.7-12,5s-5,7.3-5,12c0,4.7,1.7,8.7,5,12S22.7,44.4,27.4,44.4z
	"/>
<circle style='fill:none;stroke:#000000;stroke-width:1.5;stroke-miterlimit:10;' cx="27.4" cy="27.4" r="25.9"/>
</svg>
