<svg xmlns="http://www.w3.org/2000/svg" viewBox="0 0 3000 1928.84076"><g id="Layer_1" data-name="Layer 1"><path d="M2413.61324,1045.05611c15.03571-42.00389,30.18192-83.94311,57.89733-119.83463a222.92126,222.92126,0,0,1,46.49605-45.20476c4.80877-3.45257,4.795-5.72188,1.3233-10.04091a213.88576,213.88576,0,0,1-13.89818-19.72792c-21.207-33.53145-19.33989-59.57339,5.83646-90.11059,14.368-17.42716,28.80858-34.76012,37.827-55.947q17.71375-41.61681.68121-83.07626c-9.05217-22.02671-18.77966-43.775-27.93679-65.75973a190.15954,190.15954,0,0,1-12.51474-41.7237c-1.66528-9.99548-6.57617-14.07505-16.6148-14.28121-16.90789-.34769-33.33726,2.53669-49.77013,5.73984-18.24324,3.55593-36.36485,7.88205-55.06968,8.3797-34.41921.9154-57.23329-14.68735-68.83247-46.96179-1.27734-3.55436-2.61145-7.07864-1.16225-10.80012,3.10464-7.97363.6544-12.36321-7.22591-16.36991-16.08839-8.18008-22.63431-22.21982-20.18118-40.16178,1.09055-7.97745,2.757-15.875,3.90415-23.84594,2.73916-19.03383-14.62308-43.85574-33.32754-47.92085-9.12528-1.9832-17.05388,2.01755-25.03932,5.15249-12.71411,4.99147-25.36532,10.02786-39.24526,10.55612-33.31228,1.26815-57.27459-14.32468-75.20192-41.29245-10.98142-16.51911-19.62958-34.313-29.20189-52.60408-7.25154,8.19365-13.75569,15.9706-20.7096,23.32222-23.58454,24.93383-52.604,43.28169-78.92314,64.90556-21.62134,17.764-42.69068,36.27717-51.3276,64.44066a125.15382,125.15382,0,0,0-4.84075,20.77034c-4.57156,36.0798-25.4582,54.36491-65.68178,65.16373-22.94453,6.15992-46.73995,2.522-70.28074.55894,10.20667-.45953,20.412-.94782,30.62016-1.373,24.81362-1.03332,48.3065-5.541,69.1121-20.82761,13.4302-9.8676,21.2431-22.042,23.37559-38.31872,2.13188-16.27286,4.01863-32.63321,11.59408-47.58469,11.87019-23.42763,30.01377-41.54069,49.58824-58.4336,24.39139-21.04974,50.68043-39.88352,72.776-63.63562,6.79937-7.30907,8.63458-12.50168,2.759-21.93379-17.7045-28.42083-29.68157-59.24719-31.876-93.0631-.431-6.64322-3.94122-4.53681-7.19265-4.4641-41.41622.927-76.72179-12.65834-103.54349-44.90132-10.46128-12.57568-14.99628-27.072-6.74827-43.08991a10.00453,10.00453,0,0,1,4.29522-4.69838c-8.78856,18.75873-5.15024,35.09289,12.72664,48.97605,33.245,25.81789,69.92511,34.84117,110.72008,20.02823,2.327-.845,4.70485-1.55007,7.2783-2.392,2.25107,3.25007,1.5334,7.03848,1.73357,10.52881,1.90832,33.25571,15.13362,62.21713,33.46287,89.30924,3.28811,4.86019,6.02839,7.14267,9.12436-.13486.62-1.45756,1.50512-3.51452,4.16574-3.71309,11.96969,17.12374,20.65123,36.27728,30.8591,54.555,6.95913,12.46074,14.28888,24.69758,23.80114,35.40109,16.52931,18.5992,38.86824,24.20045,62.40887,16.01494,11.09688-3.85855,21.58555-9.35241,33.12813-12.03485a49.23419,49.23419,0,0,1,23.915.05045c32.03179,8.3316,56.12129,43.95549,51.73082,76.58211-.94958,7.05667-2.06005,14.1092-3.51476,21.07629-1.81484,8.69163,1.46587,14.148,9.37913,17.80662,19.1261,8.84267,38.10972,11.8014,57.97,1.80427,18.79329-9.45991,37.79655-18.56933,57.0882-26.95737,31.10086-13.52294,32.83419-12.57649,45.94825,18.06255,10.839,25.324,22.27489,50.302,35.90026,74.34562,14.42724,25.45859,35.0663,42.7077,61.92709,53.46834,38.57857,15.45515,78.9108,25.47208,118.19787,38.71341,7.61908,2.56786,15.04244,5.7097,22.61081,8.435,23.86787,8.59453,37.39069,25.58047,43.69847,50.05783,7.375,28.61928,19.10059,55.72512,36.3268,79.8891,22.00811,30.87187,53.4017,49.19626,87.93552,62.83814,3.74024,1.4776,7.46482,3.05668,11.31746,4.17024,3.806,1.10015,7.7653,1.66962,12.77794,2.70268-3.77462,2.081-6.94194,1.71928-10.01251.953-41.71249-10.40969-79.62718-27.95242-108.16024-61.22681-19.35292-22.56883-33.81844-48.74726-41.6785-77.15243-7.80134-28.19265-24.59679-43.34893-51.92494-50.46991-35.35068-9.21148-70.43144-19.49921-105.46231-29.88311-21.58928-6.39958-42.61134-14.41631-62.68329-28.86227,4.53079,17.47761,11.67531,32.12487,17.46054,47.24444,3.20294,8.37073,6.70673,16.62572,9.94466,24.98332,20.11457,51.91679,6.39479,97.07956-27.65863,138.16176-7.91112,9.544-15.98028,18.96169-23.709,28.65114-13.033,16.33862-14.65575,34.18345-6.55489,53.22816,6.49036,15.25836,15.81108,28.74691,26.08829,41.582,3.18434,3.97685,2.82821,5.95752-1.43932,8.5507-46.39212,28.19137-75.87353,70.208-96.87507,119.0766-6.351,14.77813-12.53166,29.62945-18.79027,44.44724C2415.63588,1046.93239,2414.64594,1046.47,2413.61324,1045.05611Z" style="fill:#fff;opacity:0.5"/><g style="opacity:0.51"><path d="M332.94733,291.53012c.05632.07417.11056.15019.16689.22437.01668-.133.00625-.2559.03013-.39126Z" style="fill:#fefefe"/><path d="M1240.3101,430.41576c-8.062,17.70016-21.11229,30.41412-38.20656,39.33744a121.45923,121.45923,0,0,1-44.10043,13.52244c-28.30115,2.87276-56.72191,4.5801-85.01379,7.53353-32.84,3.42859-60.74711,16.43275-80.37017,44.22675-1.99986,2.83243-4.61673,5.23189-6.5897,8.08008-15.72579,22.69656-37.61295,29.49115-63.90868,24.84754-31.95736-5.64308-64.61981-8.70591-96.357-4.2519-28.37533,3.98256-46.88512-7.03426-64.18034-25.80527-4.072-4.41971-8.44538-8.565-12.449-13.04264-13.735-15.36375-24.25555-32.28835-26.15922-53.50981-.82423-9.18617-.83767-18.25088,7.70089-23.89442,22.20006-14.67395,27.60532-35.93806,26.4304-60.95155-1.23149-26.22434-4.80146-52.31147-4.41623-78.62019.20443-13.97349.13351-14.00362,14.2266-17.09843,14.89276-3.27051,30.15823-3.29277,45.22529-5.06872,30.05462-3.54309,56.93561-14.02077,78.96554-35.3368,11.28894-10.92318,16.19424-23.80866,11.9041-39.57016-1.04767-3.84858-2.83382-8.12134-.51711-12.01072,6.62075-11.116,6.49466-22.97238,3.65875-34.87879-1.55668-6.53453,1.23426-8.23307,6.73711-9.11478,13.19423-2.11343,23.72847-7.725,28.81248-21.27107a24.42593,24.42593,0,0,1,11.58284-13.37223c12.75661-6.6138,19.4024-17.64917,22.44807-31.21193,3.33356-14.8464,5.62547-29.80591,4.93011-45.115-1.40695-30.9871-8.52118-61.416-8.98382-92.48056-.07209-4.868-2.71237-4.66865-6.18477-4.52494-11.69433.48675-23.40813,1.2382-35.09157.954-6.53152-.159-7.37731,2.60018-6.74778,7.86174,1.05069,8.788,1.69761,17.62506,2.81459,26.40282,2.83127,22.25523,8.6,44.1651,9.16647,66.65072.41258,16.3901,1.99058,33.66006-16.34722,43.75669-5.3698,2.95667-8.61157,9.2316-11.32347,14.96786-2.51628,5.32506-6.29973,7.79127-12.0849,9.07444-26.46239,5.86977-33.52076,15.03322-30.60326,41.908,1.33788,12.32271,2.50654,24.06131-1.76621,36.10448-1.59353,4.492-1.87886,10.71411-.01159,14.93031,5.6243,12.70052-2.18528,18.18366-10.67424,24.35475-19.84743,14.42733-42.98437,17.51195-66.33642,19.67359-32.69026,3.02575-61.60426,12.8929-81.92245,40.92611-7.18654,9.91537-9.75938,20.17749-8.12551,32.04636,1.20459,8.75041,2.44187,17.575,2.542,26.37964.13119,11.53139-5.30513,20.03425-16.66129,23.77714-8.68921,2.864-17.47092,5.46785-26.28229,7.935-15.63586,4.37845-30.37471,10.22086-42.80311,21.285-24.75714,22.0392-49.2899,44.38576-76.185,63.86557-18.726,13.56323-37.9094,26.40792-61.09526,31.3116-18.66833,3.94779-35.8268.51642-48.37712-14.22382-6.74963-7.92757-14.36938-14.78892-21.42288-22.29278-12.844-13.66429-24.28406-28.303-32.08252-45.49231-9.10111-20.0616-11.98314-40.37723-2.943-61.435,2.43515-5.67182,9.80272-10.74053,7.73727-16.05772-1.97157-5.07613-9.31666-8.0226-14.21037-12.014-12.93231-10.54815-21.63057-24.65005-31.54408-37.7293-.49835,3.99646,2.25574,6.79134,4.00365,9.87225a133.33146,133.33146,0,0,0,31.21958,36.59912c4.22268,3.51481,4.96023,5.66765,1.70919,10.55649-11.09493,16.68261-13.19654,35.18893-9.13888,54.55053,6.20284,29.59591,23.34416,52.90763,43.527,74.23432,4.15478,4.38957,3.90167,7.17287,1.22036,11.81463-8.20942,14.21269-15.82663,28.76611-23.96906,43.01868-5.638,9.869-11.42337,19.67729-18.63982,28.53989-14.00455,17.20089-28.09579,20.88815-48.64762,12.40105a134.94909,134.94909,0,0,1-27.14546-15.34984c-6.70258-4.81328-13.36876-9.67663-20.05117-14.51773,16.59615,16.56162,33.76343,32.27815,56.87975,38.962,12.69264,3.66965,24.393,1.28456,34.99886-6.50254,6.69191-4.91388,12.09927-11.09378,17.08523-17.67234,13.76488-18.16049,24.80859-38.09229,37.10255-57.2082,2.45787-3.8217,3.65134-4.73772,7.37963-1.075,18.6222,18.294,41.08,22.22232,65.78917,16.41328,26.67656-6.27122,49.40695-20.55113,71.74748-35.60892,3.74405-2.52323,7.02406-5.97453,12.18409-7.37545a132.43117,132.43117,0,0,0,2.74621,34.73c10.16617,47.67667,2.66416,91.99567-22.1194,134.07793-17.12347,29.07486-34.71979,58.00183-48.40725,88.95648-17.08546,38.64069-26.53077,77.9086-6.87572,118.73087,2.06614,4.2913-.96169,5.5754-3.5818,7.2832-13.49486,8.79955-26.87126,17.78916-40.51747,26.34812-49.0201,30.74465-98.075,61.4179-137.5042,104.74393-.31546,1.75833.185,2.66091,2.13869,2.03833,3.16018-2.59369,6.57232-4.93659,9.44044-7.82048,26.51825-26.66474,57.55959-47.24971,89.47615-66.63171q44.9585-27.30123,90.1868-54.15742c4.88931-2.89873,6.38271-5.07474,3.337-10.69047a93.1117,93.1117,0,0,1-10.42646-32.2851c-.69073-5.19851.267-7.33512,6.35953-6.62261,20.74467,2.42681,40.87349-.84787,60.65138-7.36572,21.66557-7.13995,41.59876-18.33988,62.91108-26.2809,3.885-1.44727,7.37591-2.66786,11.69039-.79549,17.94075,7.78386,36.4021,14.45793,53.98312,22.964,37.10116,17.95,48.46914,38.55771,45.47677,79.62011-.27466,3.77024-.94963,7.51777-1.56525,11.2551-2.46853,14.992-2.48939,14.89785,12.53919,14.49732,23.43572-.62536,47.00286-.99668,69.50773,6.60963,30.78173,10.40444,57.31273,25.57627,61.16525,62.61346a39.38649,39.38649,0,0,0,1.70178,6.27725c-.85854-14.75786-3.14187-29.17684-9.62888-42.60007a10.05662,10.05662,0,0,0-2.475-2.85376c-16.40424-14.66422-34.20708-26.87288-55.5741-33.44867-18.9467-5.83129-38.46407-7.1942-58.00438-8.52141-4.747-.32264-6.78046-.77416-5.322-6.5132a80.62229,80.62229,0,0,0,2.73322-24.428c-.26864-4.64871.89563-6.45526,6.06262-6.58135,23.96442-.58457,46.78614-6.62817,69.0205-15.303,25.28677-9.8653,49.49434-22.34748,75.43312-30.64822,32.79643-10.49577,63.55776-7.13162,92.154,12.57164,3.21048,2.21125,6.32708,4.55878,10.69765,7.718,1.60976-15.76242,8.26922-27.84082,14.53511-40.07545l-.13954-.12516c-9.88477,8.66418-12.78118,21.08331-17.202,33.11258a58.73807,58.73807,0,0,1-5.13037-3.137c-28.68314-22.073-60.53943-26.789-95.05942-17.70572-22.97145,6.04453-44.5851,15.787-66.72582,24.091-25.2578,9.47312-50.82688,17.212-78.234,16.86479-4.93659-.06258-7.24982-1.43336-8.47459-6.30459-4.51056-17.94122-15.4444-31.50816-29.846-42.64133-19.19842-14.84084-41.33289-24.332-63.17786-34.1839-7.25724-3.27283-10.40351-7.76022-12.1331-15.03276-7.73843-32.54238.04079-61.50737,22.812-84.99524,35.46058-36.5764,77.423-62.816,128.60591-71.65083,32.24824-5.56658,64.818-6.49049,97.42411-4.76182,14.1858.75238,28.29605,2.857,42.54861,2.90846,22.04268.07973,39.75118-8.79213,53.527-25.79879a163.86959,163.86959,0,0,0,10.43527-13.50528c16.22576-24.96852,38.74059-40.26551,68.25468-44.97264,10.28925-1.64058,20.56852-3.41468,30.91084-4.63573,25.3927-2.99654,51.14953-3.6015,75.83481-11.20272,26.404-8.13014,49.53953-20.94563,63.00587-46.55945,6.49142-12.34588,10.375-26.10242,20.08779-36.77527C1249.80037,410.26979,1244.92219,420.28993,1240.3101,430.41576ZM736.70256,591.55015c-33.52841,14.67024-64.757,32.8488-89.09694,61.01923q-34.93838,40.43658-27.0611,93.26817c.63695,4.30475.90235,6.9091-3.95729,8.63081-18.41754,6.52248-36.59147,13.74588-55.08341,20.0426a115.34862,115.34862,0,0,1-52.34508,5.49705c-6.71926-.85251-8.288-2.259-6.16112-9.22094,8.1079-26.54514,21.88924-50.23512,35.85392-73.86068,10.11772-17.117,20.2512-34.23813,30.8923-51.03061,26.80914-42.30988,34.39181-88.206,26.64086-137.19361-1.18373-7.48022-1.71754-15.07633-2.28727-22.63814-1.3432-17.82346,4.57709-32.85344,17.648-45.09039,17.14572-16.05169,36.33951-27.84175,60.05221-31.90358,13.9531-2.39018,27.91431-6.01254,39.05189-15.74758,17.25049-15.07819,20.33928-34.845,17.86658-56.20456-2.51767-21.74715,1.3476-29.28625,22.67893-40.7073-3.31965,35.63117,2.38045,70.0056-.11543,104.419-1.139,15.69892-7.62763,28.82314-21.29053,37.11693-13.07462,7.93638-16.62374,19.261-16.01113,33.7435,1.1091,26.23316,13.86386,46.72124,30.24863,65.72219a322.53874,322.53874,0,0,0,37.25321,36.31355C766.1441,579.79532,751.21658,585.20012,736.70256,591.55015Z" style="fill:#fefefe"/></g></g></svg>